<?xml version="1.0" encoding="utf-8"?>
<svg viewBox="34.706 75.282 456.343 192.063" xmlns="http://www.w3.org/2000/svg">
  <path d="M 51.128 152.694 C 42.073 152.694 34.706 160.061 34.706 169.116 C 34.706 178.171 42.073 185.537 51.128 185.537 C 60.183 185.537 67.549 178.17 67.549 169.116 C 67.549 160.061 60.183 152.694 51.128 152.694 Z M 51.128 177.537 C 46.484 177.537 42.706 173.759 42.706 169.116 C 42.706 164.472 46.484 160.694 51.128 160.694 C 55.772 160.694 59.549 164.472 59.549 169.116 C 59.549 173.759 55.771 177.537 51.128 177.537 Z" style="fill: rgb(255, 255, 255);"/>
  <path d="M 442.083 155.799 C 434.74 155.799 428.767 161.773 428.767 169.115 C 428.767 176.457 434.741 182.431 442.083 182.431 C 449.425 182.431 455.399 176.457 455.399 169.115 C 455.399 161.773 449.426 155.799 442.083 155.799 Z M 442.083 174.432 C 439.151 174.432 436.767 172.047 436.767 169.116 C 436.767 166.184 439.152 163.8 442.083 163.8 C 445.014 163.8 447.399 166.185 447.399 169.116 C 447.399 172.047 445.015 174.432 442.083 174.432 Z" style="fill: rgb(255, 255, 255);"/>
  <circle cx="482.897" cy="169.116" r="8.152" style="fill: rgb(255, 255, 255);"/>
  <path d="M 275.049 169.116 C 275.049 179.027 283.112 187.09 293.023 187.09 C 302.934 187.09 310.998 179.027 310.998 169.116 C 310.998 159.205 302.935 151.141 293.023 151.141 C 283.111 151.141 275.049 159.205 275.049 169.116 Z M 302.997 169.116 C 302.997 174.616 298.522 179.09 293.022 179.09 C 287.523 179.09 283.048 174.615 283.048 169.116 C 283.048 163.616 287.523 159.141 293.022 159.141 C 298.522 159.141 302.997 163.616 302.997 169.116 Z" style="fill: rgb(255, 255, 255);"/>
  <path d="M 372.876 130.069 C 363.774 130.069 355.396 133.208 348.749 138.449 L 343.097 135.863 C 336.483 132.825 332.634 125.687 333.741 118.499 L 334.936 110.667 C 335.107 109.548 334.796 108.41 334.081 107.534 C 333.366 106.658 332.312 106.125 331.183 106.069 L 320.777 105.549 C 313.946 105.198 307.996 100.584 305.969 94.061 L 303.497 86.135 C 303.171 85.087 302.427 84.219 301.441 83.736 C 300.457 83.252 299.315 83.194 298.286 83.577 L 288.66 87.152 C 282.588 89.421 275.73 87.871 271.201 83.207 L 264.705 76.499 C 263.952 75.721 262.914 75.282 261.831 75.282 C 260.748 75.282 259.711 75.721 258.957 76.5 L 252.463 83.206 C 247.939 87.873 241.09 89.422 235.005 87.15 L 225.375 83.577 C 224.346 83.195 223.204 83.253 222.218 83.738 C 221.233 84.223 220.489 85.092 220.164 86.141 L 217.705 94.062 C 215.67 100.583 209.72 105.2 202.903 105.55 L 192.492 106.071 C 191.362 106.128 190.309 106.66 189.593 107.536 C 188.878 108.412 188.567 109.551 188.738 110.669 L 189.933 118.501 C 191.03 125.689 187.177 132.829 180.568 135.864 L 171.683 139.934 C 170.631 140.416 169.84 141.329 169.512 142.438 C 169.184 143.547 169.353 144.744 169.975 145.72 L 174.483 152.795 C 178.557 159.187 177.739 167.474 172.497 172.946 L 166.416 179.287 C 165.611 180.126 165.211 181.274 165.32 182.431 C 165.429 183.589 166.037 184.641 166.984 185.315 L 174.598 190.73 C 180.679 195.069 183.061 202.964 180.391 209.927 L 177.516 217.416 C 177.105 218.485 177.173 219.679 177.702 220.695 C 178.231 221.711 179.17 222.452 180.281 222.73 L 190.222 225.215 C 197.104 226.928 202.075 232.845 202.591 239.933 L 203.159 247.883 C 203.238 248.992 203.775 250.018 204.641 250.715 C 205.507 251.412 206.624 251.717 207.724 251.557 L 218.127 250.042 C 224.701 249.079 231.15 252.142 234.554 257.844 L 239.05 265.392 C 239.605 266.324 240.515 266.991 241.571 267.239 C 242.627 267.487 243.738 267.296 244.651 266.709 L 252.981 261.349 C 258.355 257.889 265.309 257.889 270.689 261.348 L 279.006 266.707 C 279.657 267.127 280.411 267.345 281.173 267.345 C 281.478 267.345 281.783 267.31 282.085 267.24 C 283.141 266.993 284.051 266.327 284.607 265.396 L 289.115 257.847 C 292.52 252.142 298.967 249.076 305.548 250.042 L 315.947 251.556 C 317.05 251.716 318.164 251.411 319.031 250.714 C 319.897 250.017 320.434 248.991 320.513 247.882 L 321.08 239.932 C 321.585 232.846 326.552 226.932 333.439 225.214 L 343.377 222.73 C 344.487 222.453 345.426 221.713 345.955 220.698 C 346.483 219.683 346.552 218.49 346.143 217.421 L 343.279 209.93 C 341.473 205.216 341.968 200.044 344.432 195.831 C 351.559 203.414 361.669 208.164 372.872 208.164 C 394.403 208.164 411.92 190.648 411.92 169.117 C 411.92 147.586 394.407 130.069 372.876 130.069 Z M 335.81 212.787 L 337.062 216.061 L 331.503 217.45 C 321.249 220.007 313.854 228.812 313.101 239.361 L 312.84 243.017 L 306.704 242.124 C 296.917 240.687 287.317 245.251 282.246 253.744 L 279.86 257.739 L 275.017 254.618 C 267.003 249.468 256.652 249.468 248.65 254.619 L 243.803 257.738 L 241.424 253.744 C 236.353 245.25 226.753 240.694 216.969 242.123 L 210.829 243.017 L 210.567 239.355 C 209.8 228.804 202.4 220.001 192.156 217.451 L 186.602 216.062 L 187.858 212.79 C 191.833 202.422 188.29 190.672 179.237 184.212 L 175.393 181.478 L 178.269 178.479 C 186.072 170.334 187.289 158.003 181.227 148.492 L 179.187 145.291 L 183.9 143.132 C 193.739 138.614 199.47 127.987 197.838 117.29 L 197.311 113.835 L 203.305 113.535 C 213.456 113.014 222.311 106.145 225.341 96.435 L 226.549 92.542 L 232.212 94.643 C 241.268 98.026 251.469 95.719 258.206 88.769 L 261.828 85.028 L 265.454 88.773 C 272.199 95.718 282.404 98.022 291.448 94.645 L 297.112 92.541 L 298.326 96.435 C 301.342 106.142 310.197 113.013 320.367 113.535 L 326.356 113.834 L 325.83 117.284 C 324.184 127.981 329.91 138.609 339.761 143.133 L 342.631 144.446 C 337.132 151.176 333.826 159.765 333.826 169.113 C 333.826 176.414 335.845 183.25 339.347 189.102 C 334.145 195.767 332.725 204.731 335.81 212.787 Z M 372.876 200.163 C 355.757 200.163 341.829 186.235 341.829 169.116 C 341.829 151.997 355.757 138.069 372.876 138.069 C 389.996 138.069 403.924 151.997 403.924 169.116 C 403.924 186.235 389.996 200.163 372.876 200.163 Z" style="fill: rgb(255, 255, 255);"/>
  <path d="M 261.831 107.164 C 237.861 107.164 216.05 120.106 204.535 141.034 C 193.699 145.754 186.101 156.562 186.101 169.117 C 186.101 180.006 191.82 189.579 200.406 195.008 C 209.805 220.763 234.294 237.968 261.831 237.968 C 297.9 237.968 327.245 208.629 327.245 172.566 C 327.245 136.503 297.899 107.164 261.831 107.164 Z M 194.1 169.116 C 194.1 156.644 204.246 146.498 216.718 146.498 C 229.189 146.498 239.336 156.644 239.336 169.116 C 239.336 181.587 229.19 191.734 216.718 191.734 C 204.247 191.734 194.1 181.587 194.1 169.116 Z M 261.831 229.967 C 240.22 229.967 220.744 217.897 210.965 199.184 C 212.83 199.54 214.752 199.734 216.719 199.734 C 233.602 199.734 247.337 185.999 247.337 169.116 C 247.337 152.233 233.602 138.498 216.719 138.498 C 216.346 138.498 215.976 138.513 215.606 138.526 C 226.323 123.936 243.345 115.164 261.831 115.164 C 293.489 115.164 319.245 140.914 319.245 172.565 C 319.245 204.216 293.488 229.967 261.831 229.967 Z" style="fill: rgb(255, 255, 255);"/>
  <path d="M 153.631 132.055 C 148.72 127.145 139.368 128.437 127.252 135.649 C 125 135.188 122.686 134.948 120.334 134.948 C 111.208 134.948 102.627 138.502 96.174 144.955 C 87.755 153.374 84.664 165.128 86.886 176.003 C 79.658 188.133 78.36 197.496 83.274 202.411 C 85.241 204.378 87.918 205.353 91.197 205.353 C 95.439 205.353 100.703 203.696 106.732 200.468 C 110.969 202.307 115.576 203.282 120.334 203.282 C 129.46 203.282 138.04 199.728 144.494 193.275 C 150.947 186.821 154.501 178.241 154.501 169.115 C 154.501 164.359 153.527 159.754 151.689 155.518 C 157.418 144.82 158.14 136.564 153.631 132.055 Z M 101.831 150.613 C 106.773 145.67 113.345 142.948 120.334 142.948 C 127.323 142.948 133.895 145.67 138.837 150.613 C 140.279 152.054 141.525 153.638 142.576 155.326 C 138.573 161.842 133.018 168.73 126.483 175.264 C 119.943 181.805 113.057 187.359 106.544 191.357 C 104.856 190.306 103.272 189.06 101.831 187.618 C 91.629 177.416 91.629 160.816 101.831 150.613 Z M 88.932 196.755 C 87.953 195.777 87.889 192.162 90.643 186.01 C 92.122 188.611 93.96 191.061 96.175 193.276 C 96.96 194.061 97.777 194.801 98.622 195.499 C 93.116 197.782 89.852 197.677 88.932 196.755 Z M 138.837 187.619 C 133.895 192.561 127.324 195.283 120.335 195.283 C 118.775 195.283 117.238 195.14 115.733 194.874 C 121.215 191.005 126.801 186.262 132.142 180.922 C 137.479 175.585 142.221 169.998 146.093 164.513 C 146.359 166.018 146.502 167.556 146.502 169.116 C 146.501 176.105 143.78 182.676 138.837 187.619 Z M 144.494 144.957 C 142.302 142.765 139.86 140.916 137.239 139.419 C 143.386 136.669 146.997 136.734 147.974 137.713 C 148.895 138.634 149 141.895 146.716 147.403 C 146.019 146.558 145.279 145.741 144.494 144.957 Z" style="fill: rgb(255, 255, 255);"/>
</svg>